<svg width="240" height="220" viewBox="0 0 240 220" fill="none" xmlns="http://www.w3.org/2000/svg">
<g opacity="0.8" filter="url(#filter0_d_51_91)">
<path d="M119.938 104C119.002 104.936 118.484 105.454 117.548 106.39L117.548 117.464L112.011 111.927L108.625 115.313L116.552 123.241L117.767 124.456C118.962 125.651 120.905 125.661 122.11 124.456L123.325 123.241L131.252 115.313L127.866 111.927L122.329 117.464L122.329 106.39C121.402 105.464 120.875 104.936 119.938 104Z" fill="#272727"/>
<path d="M122.859 117.995L127.866 112.988L130.192 115.313L122.794 122.71L121.579 123.926C120.669 124.836 119.201 124.829 118.298 123.926L117.083 122.71L109.685 115.313L112.011 112.988L117.018 117.995L118.298 119.275L118.298 117.464L118.298 106.7L118.301 106.698L118.306 106.693L118.311 106.687L118.316 106.682L118.321 106.677L118.326 106.672L118.332 106.667L118.337 106.662L118.342 106.657L118.347 106.652L118.352 106.647L118.357 106.642L118.362 106.637L118.367 106.632L118.372 106.627L118.377 106.622L118.382 106.617L118.387 106.612L118.392 106.607L118.397 106.602L118.402 106.597L118.407 106.592L118.412 106.587L118.417 106.582L118.422 106.577L118.426 106.572L118.431 106.567L118.436 106.562L118.441 106.557L118.446 106.553L118.451 106.548L118.456 106.543L118.461 106.538L118.466 106.533L118.471 106.528L118.475 106.523L118.48 106.518L118.485 106.514L118.49 106.509L118.495 106.504L118.5 106.499L118.504 106.494L118.509 106.489L118.514 106.485L118.519 106.48L118.524 106.475L118.528 106.47L118.533 106.465L118.538 106.461L118.543 106.456L118.548 106.451L118.552 106.446L118.557 106.442L118.562 106.437L118.567 106.432L118.571 106.427L118.576 106.423L118.581 106.418L118.585 106.413L118.59 106.408L118.595 106.404L118.6 106.399L118.604 106.394L118.609 106.39L118.614 106.385L118.618 106.38L118.623 106.376L118.628 106.371L118.632 106.366L118.637 106.362L118.642 106.357L118.646 106.352L118.651 106.348L118.656 106.343L118.66 106.338L118.665 106.334L118.669 106.329L118.674 106.325L118.679 106.32L118.683 106.315L118.688 106.311L118.692 106.306L118.697 106.302L118.702 106.297L118.706 106.292L118.711 106.288L118.715 106.283L118.72 106.279L118.724 106.274L118.729 106.27L118.734 106.265L118.738 106.261L118.743 106.256L118.747 106.251L118.752 106.247L118.756 106.242L118.761 106.238L118.765 106.233L118.77 106.229L118.774 106.224L118.779 106.22L118.783 106.215L118.788 106.211L118.792 106.206L118.797 106.202L118.801 106.197L118.806 106.193L118.81 106.188L118.815 106.184L118.819 106.179L118.824 106.175L118.828 106.171L118.833 106.166L118.837 106.162L118.841 106.157L118.846 106.153L118.85 106.148L118.855 106.144L118.859 106.139L118.864 106.135L118.868 106.131L118.873 106.126L118.877 106.122L118.881 106.117L118.886 106.113L118.89 106.109L118.895 106.104L118.899 106.1L118.903 106.095L118.908 106.091L118.912 106.087L118.917 106.082L118.921 106.078L118.925 106.073L118.93 106.069L118.934 106.065L118.938 106.06L118.943 106.056L118.947 106.051L118.952 106.047L118.956 106.043L118.96 106.038L118.965 106.034L118.969 106.03L118.973 106.025L118.978 106.021L118.982 106.017L118.986 106.012L118.991 106.008L118.995 106.004L118.999 105.999L119.004 105.995L119.008 105.991L119.012 105.986L119.017 105.982L119.021 105.978L119.025 105.973L119.03 105.969L119.034 105.965L119.038 105.96L119.043 105.956L119.047 105.952L119.051 105.947L119.056 105.943L119.06 105.939L119.064 105.934L119.069 105.93L119.073 105.926L119.077 105.922L119.081 105.917L119.086 105.913L119.09 105.909L119.094 105.904L119.099 105.9L119.103 105.896L119.107 105.891L119.111 105.887L119.116 105.883L119.12 105.879L119.124 105.874L119.129 105.87L119.133 105.866L119.137 105.862L119.141 105.857L119.146 105.853L119.15 105.849L119.154 105.844L119.159 105.84L119.163 105.836L119.167 105.832L119.171 105.827L119.176 105.823L119.18 105.819L119.184 105.814L119.188 105.81L119.193 105.806L119.197 105.802L119.201 105.797L119.206 105.793L119.21 105.789L119.214 105.785L119.218 105.78L119.223 105.776L119.227 105.772L119.231 105.768L119.235 105.763L119.24 105.759L119.244 105.755L119.248 105.751L119.252 105.746L119.257 105.742L119.261 105.738L119.265 105.734L119.269 105.729L119.274 105.725L119.278 105.721L119.282 105.716L119.286 105.712L119.291 105.708L119.295 105.704L119.299 105.699L119.304 105.695L119.308 105.691L119.312 105.687L119.316 105.682L119.321 105.678L119.325 105.674L119.329 105.67L119.333 105.665L119.338 105.661L119.342 105.657L119.346 105.653L119.35 105.648L119.355 105.644L119.359 105.64L119.363 105.635L119.367 105.631L119.372 105.627L119.376 105.623L119.38 105.618L119.385 105.614L119.389 105.61L119.393 105.606L119.397 105.601L119.402 105.597L119.406 105.593L119.41 105.588L119.414 105.584L119.419 105.58L119.423 105.576L119.427 105.571L119.432 105.567L119.436 105.563L119.44 105.558L119.444 105.554L119.449 105.55L119.453 105.546L119.457 105.541L119.462 105.537L119.466 105.533L119.47 105.528L119.475 105.524L119.479 105.52L119.483 105.516L119.487 105.511L119.492 105.507L119.496 105.503L119.5 105.498L119.505 105.494L119.509 105.49L119.513 105.485L119.518 105.481L119.522 105.477L119.526 105.472L119.531 105.468L119.535 105.464L119.539 105.459L119.544 105.455L119.548 105.451L119.552 105.446L119.557 105.442L119.561 105.438L119.565 105.433L119.57 105.429L119.574 105.425L119.578 105.42L119.583 105.416L119.587 105.412L119.591 105.407L119.596 105.403L119.6 105.398L119.605 105.394L119.609 105.39L119.613 105.385L119.618 105.381L119.622 105.377L119.626 105.372L119.631 105.368L119.635 105.363L119.64 105.359L119.644 105.355L119.648 105.35L119.653 105.346L119.657 105.341L119.662 105.337L119.666 105.333L119.67 105.328L119.675 105.324L119.679 105.319L119.684 105.315L119.688 105.311L119.693 105.306L119.697 105.302L119.701 105.297L119.706 105.293L119.71 105.288L119.715 105.284L119.719 105.279L119.724 105.275L119.728 105.27L119.733 105.266L119.737 105.262L119.742 105.257L119.746 105.253L119.751 105.248L119.755 105.244L119.76 105.239L119.764 105.235L119.769 105.23L119.773 105.226L119.778 105.221L119.782 105.217L119.787 105.212L119.791 105.208L119.796 105.203L119.8 105.198L119.805 105.194L119.809 105.189L119.814 105.185L119.818 105.18L119.823 105.176L119.827 105.171L119.832 105.167L119.837 105.162L119.841 105.157L119.846 105.153L119.85 105.148L119.855 105.144L119.86 105.139L119.864 105.135L119.869 105.13L119.873 105.125L119.878 105.121L119.883 105.116L119.887 105.111L119.892 105.107L119.896 105.102L119.901 105.098L119.906 105.093L119.91 105.088L119.915 105.084L119.92 105.079L119.924 105.074L119.929 105.07L119.934 105.065L119.938 105.06L119.938 105.06L119.94 105.061L119.944 105.066L119.949 105.071L119.954 105.075L119.958 105.08L119.963 105.085L119.968 105.089L119.972 105.094L119.977 105.099L119.982 105.103L119.986 105.108L119.991 105.113L119.996 105.117L120 105.122L120.005 105.127L120.009 105.131L120.014 105.136L120.019 105.14L120.023 105.145L120.028 105.15L120.033 105.154L120.037 105.159L120.042 105.163L120.046 105.168L120.051 105.173L120.055 105.177L120.06 105.182L120.065 105.186L120.069 105.191L120.074 105.195L120.078 105.2L120.083 105.205L120.087 105.209L120.092 105.214L120.096 105.218L120.101 105.223L120.106 105.227L120.11 105.232L120.115 105.236L120.119 105.241L120.124 105.245L120.128 105.25L120.133 105.254L120.137 105.259L120.142 105.263L120.146 105.268L120.151 105.272L120.155 105.277L120.16 105.281L120.164 105.286L120.168 105.29L120.173 105.295L120.177 105.299L120.182 105.304L120.186 105.308L120.191 105.313L120.195 105.317L120.2 105.321L120.204 105.326L120.209 105.33L120.213 105.335L120.217 105.339L120.222 105.344L120.226 105.348L120.231 105.352L120.235 105.357L120.24 105.361L120.244 105.366L120.248 105.37L120.253 105.375L120.257 105.379L120.262 105.383L120.266 105.388L120.27 105.392L120.275 105.396L120.279 105.401L120.284 105.405L120.288 105.41L120.292 105.414L120.297 105.418L120.301 105.423L120.305 105.427L120.31 105.432L120.314 105.436L120.319 105.44L120.323 105.445L120.327 105.449L120.332 105.453L120.336 105.458L120.34 105.462L120.345 105.466L120.349 105.471L120.353 105.475L120.358 105.479L120.362 105.484L120.366 105.488L120.371 105.492L120.375 105.497L120.379 105.501L120.384 105.505L120.388 105.51L120.392 105.514L120.397 105.518L120.401 105.523L120.405 105.527L120.41 105.531L120.414 105.536L120.418 105.54L120.423 105.544L120.427 105.549L120.431 105.553L120.436 105.557L120.44 105.562L120.444 105.566L120.448 105.57L120.453 105.574L120.457 105.579L120.461 105.583L120.466 105.587L120.47 105.592L120.474 105.596L120.479 105.6L120.483 105.605L120.487 105.609L120.491 105.613L120.496 105.617L120.5 105.622L120.504 105.626L120.509 105.63L120.513 105.635L120.517 105.639L120.521 105.643L120.526 105.647L120.53 105.652L120.534 105.656L120.539 105.66L120.543 105.665L120.547 105.669L120.551 105.673L120.556 105.677L120.56 105.682L120.564 105.686L120.569 105.69L120.573 105.695L120.577 105.699L120.581 105.703L120.586 105.707L120.59 105.712L120.594 105.716L120.598 105.72L120.603 105.724L120.607 105.729L120.611 105.733L120.616 105.737L120.62 105.742L120.624 105.746L120.628 105.75L120.633 105.754L120.637 105.759L120.641 105.763L120.645 105.767L120.65 105.771L120.654 105.776L120.658 105.78L120.663 105.784L120.667 105.789L120.671 105.793L120.675 105.797L120.68 105.801L120.684 105.806L120.688 105.81L120.693 105.814L120.697 105.819L120.701 105.823L120.705 105.827L120.71 105.831L120.714 105.836L120.718 105.84L120.722 105.844L120.727 105.848L120.731 105.853L120.735 105.857L120.74 105.861L120.744 105.866L120.748 105.87L120.752 105.874L120.757 105.879L120.761 105.883L120.765 105.887L120.77 105.891L120.774 105.896L120.778 105.9L120.783 105.904L120.787 105.909L120.791 105.913L120.795 105.917L120.8 105.921L120.804 105.926L120.808 105.93L120.813 105.934L120.817 105.939L120.821 105.943L120.826 105.947L120.83 105.952L120.834 105.956L120.839 105.96L120.843 105.965L120.847 105.969L120.852 105.973L120.856 105.978L120.86 105.982L120.865 105.986L120.869 105.991L120.873 105.995L120.878 105.999L120.882 106.004L120.886 106.008L120.891 106.012L120.895 106.017L120.899 106.021L120.904 106.025L120.908 106.03L120.912 106.034L120.917 106.038L120.921 106.043L120.925 106.047L120.93 106.052L120.934 106.056L120.939 106.06L120.943 106.065L120.947 106.069L120.952 106.073L120.956 106.078L120.96 106.082L120.965 106.087L120.969 106.091L120.974 106.095L120.978 106.1L120.982 106.104L120.987 106.109L120.991 106.113L120.996 106.117L121 106.122L121.004 106.126L121.009 106.131L121.013 106.135L121.018 106.139L121.022 106.144L121.027 106.148L121.031 106.153L121.035 106.157L121.04 106.162L121.044 106.166L121.049 106.17L121.053 106.175L121.058 106.179L121.062 106.184L121.067 106.188L121.071 106.193L121.076 106.197L121.08 106.202L121.084 106.206L121.089 106.211L121.093 106.215L121.098 106.22L121.102 106.224L121.107 106.229L121.111 106.233L121.116 106.238L121.12 106.242L121.125 106.247L121.129 106.251L121.134 106.256L121.139 106.26L121.143 106.265L121.148 106.269L121.152 106.274L121.157 106.278L121.161 106.283L121.166 106.288L121.17 106.292L121.175 106.297L121.179 106.301L121.184 106.306L121.189 106.31L121.193 106.315L121.198 106.32L121.202 106.324L121.207 106.329L121.212 106.333L121.216 106.338L121.221 106.343L121.225 106.347L121.23 106.352L121.235 106.356L121.239 106.361L121.244 106.366L121.249 106.37L121.253 106.375L121.258 106.38L121.263 106.384L121.267 106.389L121.272 106.394L121.277 106.398L121.281 106.403L121.286 106.408L121.291 106.412L121.295 106.417L121.3 106.422L121.305 106.426L121.309 106.431L121.314 106.436L121.319 106.441L121.324 106.445L121.328 106.45L121.333 106.455L121.338 106.459L121.342 106.464L121.347 106.469L121.352 106.474L121.357 106.478L121.362 106.483L121.366 106.488L121.371 106.493L121.376 106.498L121.381 106.502L121.385 106.507L121.39 106.512L121.395 106.517L121.4 106.522L121.405 106.526L121.41 106.531L121.414 106.536L121.419 106.541L121.424 106.546L121.429 106.551L121.434 106.556L121.439 106.56L121.444 106.565L121.449 106.57L121.453 106.575L121.458 106.58L121.463 106.585L121.468 106.59L121.473 106.595L121.478 106.6L121.483 106.605L121.488 106.61L121.493 106.615L121.498 106.619L121.503 106.624L121.508 106.629L121.513 106.634L121.518 106.639L121.523 106.644L121.528 106.649L121.533 106.654L121.538 106.659L121.543 106.664L121.548 106.669L121.553 106.674L121.558 106.68L121.563 106.685L121.568 106.69L121.573 106.695L121.578 106.7L121.579 106.7L121.579 117.464L121.579 119.275L122.859 117.995Z" stroke="#F5F3F0" stroke-width="1.5"/>
</g>
<defs>
<filter id="filter0_d_51_91" x="0.625" y="0" width="238.627" height="237.355" filterUnits="userSpaceOnUse" color-interpolation-filters="sRGB">
<feFlood flood-opacity="0" result="BackgroundImageFix"/>
<feColorMatrix in="SourceAlpha" type="matrix" values="0 0 0 0 0 0 0 0 0 0 0 0 0 0 0 0 0 0 127 0" result="hardAlpha"/>
<feOffset dy="4"/>
<feGaussianBlur stdDeviation="54"/>
<feComposite in2="hardAlpha" operator="out"/>
<feColorMatrix type="matrix" values="0 0 0 0 0 0 0 0 0 0 0 0 0 0 0 0 0 0 0.25 0"/>
<feBlend mode="normal" in2="BackgroundImageFix" result="effect1_dropShadow_51_91"/>
<feBlend mode="normal" in="SourceGraphic" in2="effect1_dropShadow_51_91" result="shape"/>
</filter>
</defs>
</svg>
