<svg width="240" height="239" viewBox="0 0 240 239" fill="none" xmlns="http://www.w3.org/2000/svg">
<g filter="url(#filter0_d_1_1944)">
<path d="M120 126.152C120.958 125.194 121.488 124.664 122.446 123.706L122.446 112.375L128.111 118.04L131.576 114.576L123.465 106.465L122.221 105.221C120.999 103.999 119.012 103.988 117.779 105.221L116.535 106.465L108.424 114.576L111.889 118.04L117.554 112.375L117.554 123.706C118.502 124.654 119.042 125.194 120 126.152Z" fill="#272727"/>
<path d="M117.024 111.844L111.889 116.98L109.485 114.576L117.066 106.995L118.309 105.752C119.247 104.813 120.76 104.82 121.691 105.752L122.934 106.995L130.515 114.576L128.111 116.98L122.976 111.844L121.696 110.564V112.375L121.696 123.395L121.693 123.398L121.688 123.403L121.682 123.409L121.677 123.414L121.672 123.419L121.667 123.424L121.662 123.429L121.656 123.435L121.651 123.44L121.646 123.445L121.641 123.45L121.636 123.455L121.631 123.46L121.625 123.466L121.62 123.471L121.615 123.476L121.61 123.481L121.605 123.486L121.6 123.491L121.595 123.496L121.59 123.501L121.585 123.506L121.58 123.512L121.574 123.517L121.569 123.522L121.564 123.527L121.559 123.532L121.554 123.537L121.549 123.542L121.544 123.547L121.539 123.552L121.534 123.557L121.529 123.562L121.524 123.567L121.519 123.572L121.514 123.577L121.509 123.582L121.504 123.587L121.499 123.592L121.494 123.597L121.489 123.602L121.484 123.607L121.48 123.612L121.475 123.616L121.47 123.621L121.465 123.626L121.46 123.631L121.455 123.636L121.45 123.641L121.445 123.646L121.44 123.651L121.435 123.656L121.431 123.661L121.426 123.665L121.421 123.67L121.416 123.675L121.411 123.68L121.406 123.685L121.401 123.69L121.397 123.694L121.392 123.699L121.387 123.704L121.382 123.709L121.377 123.714L121.373 123.718L121.368 123.723L121.363 123.728L121.358 123.733L121.353 123.738L121.349 123.742L121.344 123.747L121.339 123.752L121.334 123.757L121.33 123.761L121.325 123.766L121.32 123.771L121.315 123.776L121.311 123.78L121.306 123.785L121.301 123.79L121.297 123.794L121.292 123.799L121.287 123.804L121.282 123.809L121.278 123.813L121.273 123.818L121.268 123.823L121.264 123.827L121.259 123.832L121.254 123.837L121.25 123.841L121.245 123.846L121.24 123.851L121.236 123.855L121.231 123.86L121.227 123.865L121.222 123.869L121.217 123.874L121.213 123.878L121.208 123.883L121.203 123.888L121.199 123.892L121.194 123.897L121.19 123.901L121.185 123.906L121.18 123.911L121.176 123.915L121.171 123.92L121.167 123.924L121.162 123.929L121.158 123.934L121.153 123.938L121.148 123.943L121.144 123.947L121.139 123.952L121.135 123.956L121.13 123.961L121.126 123.965L121.121 123.97L121.117 123.975L121.112 123.979L121.107 123.984L121.103 123.988L121.098 123.993L121.094 123.997L121.089 124.002L121.085 124.006L121.08 124.011L121.076 124.015L121.071 124.02L121.067 124.024L121.062 124.029L121.058 124.033L121.053 124.038L121.049 124.042L121.044 124.047L121.04 124.051L121.035 124.056L121.031 124.06L121.027 124.065L121.022 124.069L121.018 124.073L121.013 124.078L121.009 124.082L121.004 124.087L121 124.091L120.995 124.096L120.991 124.1L120.986 124.105L120.982 124.109L120.978 124.114L120.973 124.118L120.969 124.122L120.964 124.127L120.96 124.131L120.955 124.136L120.951 124.14L120.947 124.145L120.942 124.149L120.938 124.153L120.933 124.158L120.929 124.162L120.924 124.167L120.92 124.171L120.916 124.175L120.911 124.18L120.907 124.184L120.902 124.189L120.898 124.193L120.894 124.197L120.889 124.202L120.885 124.206L120.88 124.211L120.876 124.215L120.872 124.219L120.867 124.224L120.863 124.228L120.858 124.233L120.854 124.237L120.85 124.241L120.845 124.246L120.841 124.25L120.837 124.255L120.832 124.259L120.828 124.263L120.823 124.268L120.819 124.272L120.815 124.276L120.81 124.281L120.806 124.285L120.802 124.29L120.797 124.294L120.793 124.298L120.788 124.303L120.784 124.307L120.78 124.311L120.775 124.316L120.771 124.32L120.767 124.324L120.762 124.329L120.758 124.333L120.754 124.338L120.749 124.342L120.745 124.346L120.74 124.351L120.736 124.355L120.732 124.359L120.727 124.364L120.723 124.368L120.719 124.372L120.714 124.377L120.71 124.381L120.706 124.386L120.701 124.39L120.697 124.394L120.692 124.399L120.688 124.403L120.684 124.407L120.679 124.412L120.675 124.416L120.671 124.42L120.666 124.425L120.662 124.429L120.658 124.433L120.653 124.438L120.649 124.442L120.645 124.447L120.64 124.451L120.636 124.455L120.631 124.46L120.627 124.464L120.623 124.468L120.618 124.473L120.614 124.477L120.61 124.481L120.605 124.486L120.601 124.49L120.597 124.495L120.592 124.499L120.588 124.503L120.583 124.508L120.579 124.512L120.575 124.516L120.57 124.521L120.566 124.525L120.562 124.53L120.557 124.534L120.553 124.538L120.548 124.543L120.544 124.547L120.54 124.551L120.535 124.556L120.531 124.56L120.526 124.565L120.522 124.569L120.518 124.573L120.513 124.578L120.509 124.582L120.505 124.587L120.5 124.591L120.496 124.595L120.491 124.6L120.487 124.604L120.483 124.609L120.478 124.613L120.474 124.617L120.469 124.622L120.465 124.626L120.461 124.631L120.456 124.635L120.452 124.639L120.447 124.644L120.443 124.648L120.438 124.653L120.434 124.657L120.43 124.661L120.425 124.666L120.421 124.67L120.416 124.675L120.412 124.679L120.407 124.684L120.403 124.688L120.399 124.693L120.394 124.697L120.39 124.701L120.385 124.706L120.381 124.71L120.376 124.715L120.372 124.719L120.367 124.724L120.363 124.728L120.358 124.733L120.354 124.737L120.349 124.742L120.345 124.746L120.341 124.751L120.336 124.755L120.332 124.76L120.327 124.764L120.323 124.769L120.318 124.773L120.314 124.778L120.309 124.782L120.305 124.787L120.3 124.791L120.296 124.796L120.291 124.8L120.287 124.805L120.282 124.809L120.277 124.814L120.273 124.818L120.268 124.823L120.264 124.827L120.259 124.832L120.255 124.836L120.25 124.841L120.246 124.845L120.241 124.85L120.237 124.855L120.232 124.859L120.227 124.864L120.223 124.868L120.218 124.873L120.214 124.877L120.209 124.882L120.205 124.887L120.2 124.891L120.195 124.896L120.191 124.9L120.186 124.905L120.182 124.91L120.177 124.914L120.172 124.919L120.168 124.923L120.163 124.928L120.158 124.933L120.154 124.937L120.149 124.942L120.144 124.947L120.14 124.951L120.135 124.956L120.131 124.961L120.126 124.965L120.121 124.97L120.117 124.975L120.112 124.979L120.107 124.984L120.102 124.989L120.098 124.993L120.093 124.998L120.088 125.003L120.084 125.007L120.079 125.012L120.074 125.017L120.069 125.022L120.065 125.026L120.06 125.031L120.055 125.036L120.051 125.041L120.046 125.045L120.041 125.05L120.036 125.055L120.031 125.06L120.027 125.064L120.022 125.069L120.017 125.074L120.012 125.079L120.008 125.084L120.003 125.088L120 125.091L119.996 125.087L119.991 125.083L119.987 125.078L119.982 125.073L119.977 125.068L119.972 125.063L119.967 125.058L119.963 125.054L119.958 125.049L119.953 125.044L119.948 125.039L119.944 125.035L119.939 125.03L119.934 125.025L119.929 125.02L119.925 125.016L119.92 125.011L119.915 125.006L119.91 125.001L119.906 124.997L119.901 124.992L119.896 124.987L119.891 124.983L119.887 124.978L119.882 124.973L119.877 124.968L119.873 124.964L119.868 124.959L119.863 124.954L119.859 124.95L119.854 124.945L119.849 124.94L119.845 124.936L119.84 124.931L119.835 124.926L119.831 124.922L119.826 124.917L119.821 124.912L119.817 124.908L119.812 124.903L119.808 124.899L119.803 124.894L119.798 124.889L119.794 124.885L119.789 124.88L119.784 124.876L119.78 124.871L119.775 124.866L119.771 124.862L119.766 124.857L119.762 124.853L119.757 124.848L119.752 124.843L119.748 124.839L119.743 124.834L119.739 124.83L119.734 124.825L119.73 124.821L119.725 124.816L119.72 124.812L119.716 124.807L119.711 124.802L119.707 124.798L119.702 124.793L119.698 124.789L119.693 124.784L119.689 124.78L119.684 124.775L119.68 124.771L119.675 124.766L119.671 124.762L119.666 124.757L119.662 124.753L119.657 124.748L119.653 124.744L119.648 124.739L119.644 124.735L119.639 124.73L119.635 124.726L119.63 124.721L119.626 124.717L119.621 124.712L119.617 124.708L119.612 124.703L119.608 124.699L119.603 124.694L119.599 124.69L119.594 124.685L119.59 124.681L119.585 124.677L119.581 124.672L119.577 124.668L119.572 124.663L119.568 124.659L119.563 124.654L119.559 124.65L119.554 124.645L119.55 124.641L119.545 124.637L119.541 124.632L119.537 124.628L119.532 124.623L119.528 124.619L119.523 124.614L119.519 124.61L119.514 124.606L119.51 124.601L119.506 124.597L119.501 124.592L119.497 124.588L119.492 124.583L119.488 124.579L119.484 124.575L119.479 124.57L119.475 124.566L119.47 124.561L119.466 124.557L119.462 124.553L119.457 124.548L119.453 124.544L119.448 124.539L119.444 124.535L119.44 124.531L119.435 124.526L119.431 124.522L119.426 124.517L119.422 124.513L119.418 124.509L119.413 124.504L119.409 124.5L119.404 124.495L119.4 124.491L119.396 124.487L119.391 124.482L119.387 124.478L119.382 124.474L119.378 124.469L119.374 124.465L119.369 124.46L119.365 124.456L119.361 124.452L119.356 124.447L119.352 124.443L119.347 124.439L119.343 124.434L119.339 124.43L119.334 124.425L119.33 124.421L119.326 124.417L119.321 124.412L119.317 124.408L119.312 124.404L119.308 124.399L119.304 124.395L119.299 124.39L119.295 124.386L119.291 124.382L119.286 124.377L119.282 124.373L119.277 124.369L119.273 124.364L119.269 124.36L119.264 124.355L119.26 124.351L119.256 124.347L119.251 124.342L119.247 124.338L119.242 124.334L119.238 124.329L119.234 124.325L119.229 124.32L119.225 124.316L119.221 124.312L119.216 124.307L119.212 124.303L119.207 124.299L119.203 124.294L119.199 124.29L119.194 124.285L119.19 124.281L119.186 124.277L119.181 124.272L119.177 124.268L119.172 124.263L119.168 124.259L119.164 124.255L119.159 124.25L119.155 124.246L119.15 124.242L119.146 124.237L119.142 124.233L119.137 124.228L119.133 124.224L119.128 124.22L119.124 124.215L119.12 124.211L119.115 124.206L119.111 124.202L119.106 124.198L119.102 124.193L119.098 124.189L119.093 124.184L119.089 124.18L119.084 124.175L119.08 124.171L119.076 124.167L119.071 124.162L119.067 124.158L119.062 124.153L119.058 124.149L119.053 124.145L119.049 124.14L119.045 124.136L119.04 124.131L119.036 124.127L119.031 124.122L119.027 124.118L119.022 124.114L119.018 124.109L119.014 124.105L119.009 124.1L119.005 124.096L119 124.091L118.996 124.087L118.991 124.082L118.987 124.078L118.982 124.073L118.978 124.069L118.973 124.065L118.969 124.06L118.964 124.056L118.96 124.051L118.956 124.047L118.951 124.042L118.947 124.038L118.942 124.033L118.938 124.029L118.933 124.024L118.929 124.02L118.924 124.015L118.92 124.011L118.915 124.006L118.911 124.002L118.906 123.997L118.902 123.993L118.897 123.988L118.893 123.984L118.888 123.979L118.883 123.975L118.879 123.97L118.874 123.965L118.87 123.961L118.865 123.956L118.861 123.952L118.856 123.947L118.852 123.943L118.847 123.938L118.843 123.934L118.838 123.929L118.833 123.925L118.829 123.92L118.824 123.915L118.82 123.911L118.815 123.906L118.811 123.902L118.806 123.897L118.801 123.892L118.797 123.888L118.792 123.883L118.788 123.879L118.783 123.874L118.778 123.869L118.774 123.865L118.769 123.86L118.764 123.856L118.76 123.851L118.755 123.846L118.751 123.842L118.746 123.837L118.741 123.832L118.737 123.828L118.732 123.823L118.727 123.818L118.723 123.814L118.718 123.809L118.713 123.804L118.709 123.8L118.704 123.795L118.699 123.79L118.695 123.786L118.69 123.781L118.685 123.776L118.68 123.771L118.676 123.767L118.671 123.762L118.666 123.757L118.661 123.753L118.657 123.748L118.652 123.743L118.647 123.738L118.643 123.734L118.638 123.729L118.633 123.724L118.628 123.719L118.623 123.715L118.619 123.71L118.614 123.705L118.609 123.7L118.604 123.695L118.6 123.691L118.595 123.686L118.59 123.681L118.585 123.676L118.58 123.671L118.575 123.666L118.571 123.662L118.566 123.657L118.561 123.652L118.556 123.647L118.551 123.642L118.546 123.637L118.541 123.633L118.537 123.628L118.532 123.623L118.527 123.618L118.522 123.613L118.517 123.608L118.512 123.603L118.507 123.598L118.502 123.593L118.497 123.588L118.492 123.583L118.487 123.579L118.482 123.574L118.478 123.569L118.473 123.564L118.468 123.559L118.463 123.554L118.458 123.549L118.453 123.544L118.448 123.539L118.443 123.534L118.438 123.529L118.433 123.524L118.428 123.519L118.423 123.514L118.418 123.509L118.413 123.504L118.407 123.499L118.402 123.494L118.397 123.488L118.392 123.483L118.387 123.478L118.382 123.473L118.377 123.468L118.372 123.463L118.367 123.458L118.362 123.453L118.357 123.448L118.351 123.443L118.346 123.437L118.341 123.432L118.336 123.427L118.331 123.422L118.326 123.417L118.321 123.412L118.315 123.406L118.31 123.401L118.305 123.396L118.304 123.395L118.304 112.375L118.304 110.564L117.024 111.844Z" stroke="#F4F4F4" stroke-width="1.5"/>
</g>
<circle cx="120" cy="115" r="24.5" stroke="#D6D6D6"/>
<defs>
<filter id="filter0_d_1_1944" x="0.424072" y="0.300537" width="239.152" height="237.851" filterUnits="userSpaceOnUse" color-interpolation-filters="sRGB">
<feFlood flood-opacity="0" result="BackgroundImageFix"/>
<feColorMatrix in="SourceAlpha" type="matrix" values="0 0 0 0 0 0 0 0 0 0 0 0 0 0 0 0 0 0 127 0" result="hardAlpha"/>
<feOffset dy="4"/>
<feGaussianBlur stdDeviation="54"/>
<feComposite in2="hardAlpha" operator="out"/>
<feColorMatrix type="matrix" values="0 0 0 0 0 0 0 0 0 0 0 0 0 0 0 0 0 0 0.25 0"/>
<feBlend mode="normal" in2="BackgroundImageFix" result="effect1_dropShadow_1_1944"/>
<feBlend mode="normal" in="SourceGraphic" in2="effect1_dropShadow_1_1944" result="shape"/>
</filter>
</defs>
</svg>
