<svg width="20" height="20" viewBox="108 104 20 20" fill="none" xmlns="http://www.w3.org/2000/svg">
<g opacity="0.9" filter="url(#filter0_d_1_509)">
<path d="M126.799 114.25C125.98 113.431 125.527 112.978 124.708 112.159H115.017L119.862 107.313L116.899 104.351L109.963 111.287L108.9 112.35C107.854 113.396 107.845 115.095 108.9 116.15L109.963 117.213L116.899 124.149L119.862 121.187L115.017 116.341L124.708 116.341C125.518 115.531 125.98 115.069 126.799 114.25Z" fill="#7B7B7B"/>
<path d="M114.593 116.766L119.014 121.187L116.899 123.301L110.387 116.789L109.324 115.725C108.505 114.907 108.511 113.587 109.324 112.775L110.387 111.711L116.899 105.199L119.014 107.313L114.593 111.734L113.569 112.759L115.017 112.759H124.459L124.46 112.759L124.464 112.764L124.469 112.768L124.473 112.773L124.478 112.777L124.482 112.782L124.487 112.786L124.491 112.791L124.496 112.795L124.5 112.8L124.505 112.804L124.509 112.809L124.513 112.813L124.518 112.817L124.522 112.822L124.527 112.826L124.531 112.831L124.535 112.835L124.54 112.839L124.544 112.844L124.549 112.848L124.553 112.853L124.557 112.857L124.562 112.861L124.566 112.866L124.57 112.87L124.575 112.874L124.579 112.879L124.583 112.883L124.588 112.887L124.592 112.892L124.596 112.896L124.601 112.9L124.605 112.904L124.609 112.909L124.613 112.913L124.618 112.917L124.622 112.922L124.626 112.926L124.631 112.93L124.635 112.934L124.639 112.939L124.643 112.943L124.647 112.947L124.652 112.951L124.656 112.955L124.66 112.96L124.664 112.964L124.669 112.968L124.673 112.972L124.677 112.976L124.681 112.981L124.685 112.985L124.689 112.989L124.694 112.993L124.698 112.997L124.702 113.002L124.706 113.006L124.71 113.01L124.714 113.014L124.719 113.018L124.723 113.022L124.727 113.026L124.731 113.03L124.735 113.035L124.739 113.039L124.743 113.043L124.747 113.047L124.751 113.051L124.756 113.055L124.76 113.059L124.764 113.063L124.768 113.067L124.772 113.071L124.776 113.076L124.78 113.08L124.784 113.084L124.788 113.088L124.792 113.092L124.796 113.096L124.8 113.1L124.804 113.104L124.808 113.108L124.812 113.112L124.816 113.116L124.82 113.12L124.824 113.124L124.828 113.128L124.832 113.132L124.836 113.136L124.84 113.14L124.844 113.144L124.848 113.148L124.852 113.152L124.856 113.156L124.86 113.16L124.864 113.164L124.868 113.168L124.872 113.172L124.876 113.176L124.88 113.18L124.884 113.184L124.888 113.188L124.892 113.192L124.896 113.196L124.9 113.199L124.904 113.203L124.908 113.207L124.912 113.211L124.916 113.215L124.92 113.219L124.923 113.223L124.927 113.227L124.931 113.231L124.935 113.235L124.939 113.239L124.943 113.243L124.947 113.246L124.951 113.25L124.955 113.254L124.959 113.258L124.962 113.262L124.966 113.266L124.97 113.27L124.974 113.274L124.978 113.278L124.982 113.281L124.986 113.285L124.99 113.289L124.993 113.293L124.997 113.297L125.001 113.301L125.005 113.305L125.009 113.308L125.013 113.312L125.017 113.316L125.02 113.32L125.024 113.324L125.028 113.328L125.032 113.331L125.036 113.335L125.039 113.339L125.043 113.343L125.047 113.347L125.051 113.351L125.055 113.354L125.059 113.358L125.062 113.362L125.066 113.366L125.07 113.37L125.074 113.373L125.078 113.377L125.081 113.381L125.085 113.385L125.089 113.389L125.093 113.392L125.097 113.396L125.1 113.4L125.104 113.404L125.108 113.408L125.112 113.411L125.116 113.415L125.119 113.419L125.123 113.423L125.127 113.426L125.131 113.43L125.134 113.434L125.138 113.438L125.142 113.441L125.146 113.445L125.149 113.449L125.153 113.453L125.157 113.457L125.161 113.46L125.165 113.464L125.168 113.468L125.172 113.472L125.176 113.475L125.18 113.479L125.183 113.483L125.187 113.487L125.191 113.49L125.195 113.494L125.198 113.498L125.202 113.502L125.206 113.505L125.21 113.509L125.213 113.513L125.217 113.517L125.221 113.52L125.225 113.524L125.228 113.528L125.232 113.532L125.236 113.535L125.239 113.539L125.243 113.543L125.247 113.546L125.251 113.55L125.254 113.554L125.258 113.558L125.262 113.561L125.266 113.565L125.269 113.569L125.273 113.573L125.277 113.576L125.281 113.58L125.284 113.584L125.288 113.588L125.292 113.591L125.295 113.595L125.299 113.599L125.303 113.602L125.307 113.606L125.31 113.61L125.314 113.614L125.318 113.617L125.322 113.621L125.325 113.625L125.329 113.629L125.333 113.632L125.336 113.636L125.34 113.64L125.344 113.643L125.348 113.647L125.351 113.651L125.355 113.655L125.359 113.658L125.363 113.662L125.366 113.666L125.37 113.67L125.374 113.673L125.377 113.677L125.381 113.681L125.385 113.684L125.389 113.688L125.392 113.692L125.396 113.696L125.4 113.699L125.404 113.703L125.407 113.707L125.411 113.711L125.415 113.714L125.419 113.718L125.422 113.722L125.426 113.726L125.43 113.729L125.433 113.733L125.437 113.737L125.441 113.741L125.445 113.744L125.448 113.748L125.452 113.752L125.456 113.755L125.46 113.759L125.463 113.763L125.467 113.767L125.471 113.77L125.475 113.774L125.478 113.778L125.482 113.782L125.486 113.786L125.49 113.789L125.493 113.793L125.497 113.797L125.501 113.801L125.505 113.804L125.509 113.808L125.512 113.812L125.516 113.816L125.52 113.819L125.524 113.823L125.527 113.827L125.531 113.831L125.535 113.834L125.539 113.838L125.542 113.842L125.546 113.846L125.55 113.85L125.554 113.853L125.558 113.857L125.561 113.861L125.565 113.865L125.569 113.869L125.573 113.872L125.577 113.876L125.58 113.88L125.584 113.884L125.588 113.888L125.592 113.891L125.596 113.895L125.599 113.899L125.603 113.903L125.607 113.907L125.611 113.91L125.615 113.914L125.619 113.918L125.622 113.922L125.626 113.926L125.63 113.93L125.634 113.933L125.638 113.937L125.641 113.941L125.645 113.945L125.649 113.949L125.653 113.953L125.657 113.956L125.661 113.96L125.665 113.964L125.668 113.968L125.672 113.972L125.676 113.976L125.68 113.98L125.684 113.983L125.688 113.987L125.692 113.991L125.696 113.995L125.699 113.999L125.703 114.003L125.707 114.007L125.711 114.011L125.715 114.015L125.719 114.018L125.723 114.022L125.727 114.026L125.731 114.03L125.735 114.034L125.738 114.038L125.742 114.042L125.746 114.046L125.75 114.05L125.754 114.054L125.758 114.058L125.762 114.062L125.766 114.065L125.77 114.069L125.774 114.073L125.778 114.077L125.782 114.081L125.786 114.085L125.79 114.089L125.794 114.093L125.798 114.097L125.802 114.101L125.806 114.105L125.81 114.109L125.814 114.113L125.818 114.117L125.822 114.121L125.826 114.125L125.83 114.129L125.834 114.133L125.838 114.137L125.842 114.141L125.846 114.145L125.85 114.149L125.854 114.153L125.858 114.157L125.862 114.161L125.866 114.165L125.87 114.169L125.874 114.173L125.878 114.178L125.882 114.182L125.886 114.186L125.89 114.19L125.894 114.194L125.898 114.198L125.902 114.202L125.907 114.206L125.911 114.21L125.915 114.214L125.919 114.218L125.923 114.222L125.927 114.227L125.931 114.231L125.935 114.235L125.939 114.239L125.944 114.243L125.948 114.247L125.95 114.25L125.947 114.253L125.943 114.258L125.939 114.262L125.935 114.266L125.93 114.27L125.926 114.274L125.922 114.278L125.918 114.282L125.914 114.287L125.91 114.291L125.906 114.295L125.902 114.299L125.897 114.303L125.893 114.307L125.889 114.311L125.885 114.315L125.881 114.319L125.877 114.323L125.873 114.328L125.869 114.332L125.865 114.336L125.861 114.34L125.857 114.344L125.853 114.348L125.849 114.352L125.845 114.356L125.84 114.36L125.836 114.364L125.832 114.368L125.828 114.372L125.824 114.376L125.82 114.38L125.816 114.384L125.812 114.388L125.808 114.392L125.804 114.396L125.8 114.4L125.796 114.404L125.792 114.408L125.788 114.412L125.784 114.416L125.78 114.42L125.776 114.424L125.772 114.428L125.768 114.432L125.765 114.436L125.761 114.44L125.757 114.444L125.753 114.448L125.749 114.452L125.745 114.456L125.741 114.46L125.737 114.464L125.733 114.468L125.729 114.471L125.725 114.475L125.721 114.479L125.717 114.483L125.713 114.487L125.709 114.491L125.706 114.495L125.702 114.499L125.698 114.503L125.694 114.507L125.69 114.511L125.686 114.514L125.682 114.518L125.678 114.522L125.674 114.526L125.67 114.53L125.667 114.534L125.663 114.538L125.659 114.542L125.655 114.545L125.651 114.549L125.647 114.553L125.643 114.557L125.64 114.561L125.636 114.565L125.632 114.569L125.628 114.573L125.624 114.576L125.62 114.58L125.616 114.584L125.613 114.588L125.609 114.592L125.605 114.596L125.601 114.599L125.597 114.603L125.593 114.607L125.59 114.611L125.586 114.615L125.582 114.619L125.578 114.622L125.574 114.626L125.571 114.63L125.567 114.634L125.563 114.638L125.559 114.641L125.555 114.645L125.551 114.649L125.548 114.653L125.544 114.657L125.54 114.66L125.536 114.664L125.532 114.668L125.529 114.672L125.525 114.676L125.521 114.679L125.517 114.683L125.514 114.687L125.51 114.691L125.506 114.695L125.502 114.698L125.498 114.702L125.495 114.706L125.491 114.71L125.487 114.713L125.483 114.717L125.48 114.721L125.476 114.725L125.472 114.728L125.468 114.732L125.464 114.736L125.461 114.74L125.457 114.744L125.453 114.747L125.449 114.751L125.446 114.755L125.442 114.759L125.438 114.762L125.434 114.766L125.431 114.77L125.427 114.774L125.423 114.777L125.419 114.781L125.416 114.785L125.412 114.789L125.408 114.792L125.404 114.796L125.401 114.8L125.397 114.804L125.393 114.807L125.389 114.811L125.386 114.815L125.382 114.819L125.378 114.822L125.374 114.826L125.371 114.83L125.367 114.834L125.363 114.837L125.359 114.841L125.356 114.845L125.352 114.849L125.348 114.852L125.344 114.856L125.341 114.86L125.337 114.864L125.333 114.867L125.329 114.871L125.326 114.875L125.322 114.878L125.318 114.882L125.315 114.886L125.311 114.89L125.307 114.893L125.303 114.897L125.3 114.901L125.296 114.905L125.292 114.908L125.288 114.912L125.285 114.916L125.281 114.92L125.277 114.923L125.273 114.927L125.27 114.931L125.266 114.935L125.262 114.938L125.258 114.942L125.255 114.946L125.251 114.95L125.247 114.953L125.243 114.957L125.24 114.961L125.236 114.965L125.232 114.968L125.228 114.972L125.225 114.976L125.221 114.98L125.217 114.983L125.213 114.987L125.21 114.991L125.206 114.995L125.202 114.998L125.198 115.002L125.195 115.006L125.191 115.01L125.187 115.013L125.183 115.017L125.18 115.021L125.176 115.025L125.172 115.028L125.168 115.032L125.165 115.036L125.161 115.04L125.157 115.043L125.153 115.047L125.15 115.051L125.146 115.055L125.142 115.058L125.138 115.062L125.134 115.066L125.131 115.07L125.127 115.074L125.123 115.077L125.119 115.081L125.116 115.085L125.112 115.089L125.108 115.093L125.104 115.096L125.1 115.1L125.097 115.104L125.093 115.108L125.089 115.111L125.085 115.115L125.081 115.119L125.078 115.123L125.074 115.127L125.07 115.13L125.066 115.134L125.062 115.138L125.059 115.142L125.055 115.146L125.051 115.15L125.047 115.153L125.043 115.157L125.039 115.161L125.036 115.165L125.032 115.169L125.028 115.172L125.024 115.176L125.02 115.18L125.016 115.184L125.013 115.188L125.009 115.192L125.005 115.196L125.001 115.199L124.997 115.203L124.993 115.207L124.99 115.211L124.986 115.215L124.982 115.219L124.978 115.222L124.974 115.226L124.97 115.23L124.966 115.234L124.962 115.238L124.959 115.242L124.955 115.246L124.951 115.25L124.947 115.254L124.943 115.257L124.939 115.261L124.935 115.265L124.931 115.269L124.927 115.273L124.924 115.277L124.92 115.281L124.916 115.285L124.912 115.289L124.908 115.293L124.904 115.296L124.9 115.3L124.896 115.304L124.892 115.308L124.888 115.312L124.884 115.316L124.88 115.32L124.876 115.324L124.872 115.328L124.869 115.332L124.865 115.336L124.861 115.34L124.857 115.344L124.853 115.348L124.849 115.352L124.845 115.356L124.841 115.36L124.837 115.364L124.833 115.368L124.829 115.372L124.825 115.376L124.821 115.38L124.817 115.384L124.813 115.388L124.809 115.392L124.805 115.396L124.801 115.4L124.797 115.404L124.793 115.408L124.789 115.412L124.785 115.416L124.781 115.42L124.777 115.424L124.772 115.428L124.768 115.432L124.764 115.436L124.76 115.44L124.756 115.444L124.752 115.448L124.748 115.452L124.744 115.456L124.74 115.461L124.736 115.465L124.732 115.469L124.728 115.473L124.724 115.477L124.719 115.481L124.715 115.485L124.711 115.489L124.707 115.493L124.703 115.498L124.699 115.502L124.695 115.506L124.69 115.51L124.686 115.514L124.682 115.518L124.678 115.522L124.674 115.527L124.67 115.531L124.666 115.535L124.661 115.539L124.657 115.543L124.653 115.548L124.649 115.552L124.645 115.556L124.64 115.56L124.636 115.564L124.632 115.569L124.628 115.573L124.623 115.577L124.619 115.581L124.615 115.585L124.611 115.59L124.606 115.594L124.602 115.598L124.598 115.603L124.594 115.607L124.589 115.611L124.585 115.615L124.581 115.62L124.577 115.624L124.572 115.628L124.568 115.633L124.564 115.637L124.559 115.641L124.555 115.645L124.551 115.65L124.546 115.654L124.542 115.658L124.538 115.663L124.533 115.667L124.529 115.672L124.525 115.676L124.52 115.68L124.516 115.685L124.511 115.689L124.507 115.693L124.503 115.698L124.498 115.702L124.494 115.707L124.489 115.711L124.485 115.716L124.481 115.72L124.476 115.724L124.472 115.729L124.467 115.733L124.463 115.738L124.459 115.741L115.017 115.741L113.569 115.741L114.593 116.766Z" stroke="#F4F4F4" stroke-width="1.2"/>
</g>
<defs>
<filter id="filter0_d_1_509" x="0.112305" y="0.350586" width="234.687" height="235.799" filterUnits="userSpaceOnUse" color-interpolation-filters="sRGB">
<feFlood flood-opacity="0" result="BackgroundImageFix"/>
<feColorMatrix in="SourceAlpha" type="matrix" values="0 0 0 0 0 0 0 0 0 0 0 0 0 0 0 0 0 0 127 0" result="hardAlpha"/>
<feOffset dy="4"/>
<feGaussianBlur stdDeviation="54"/>
<feComposite in2="hardAlpha" operator="out"/>
<feColorMatrix type="matrix" values="0 0 0 0 0 0 0 0 0 0 0 0 0 0 0 0 0 0 0.25 0"/>
<feBlend mode="normal" in2="BackgroundImageFix" result="effect1_dropShadow_1_509"/>
<feBlend mode="normal" in="SourceGraphic" in2="effect1_dropShadow_1_509" result="shape"/>
</filter>
</defs>
</svg>
