<svg width="11" height="68" viewBox="0 0 11 68" fill="none" xmlns="http://www.w3.org/2000/svg">
<path opacity="0.6" d="M4.46248 62.654L4.97948 63.204C4.28281 63.204 3.74381 63.3507 3.36248 63.644C2.98114 63.93 2.79048 64.337 2.79048 64.865C2.79048 65.4077 2.98481 65.822 3.37348 66.108C3.75481 66.394 4.30481 66.537 5.02348 66.537C5.72748 66.537 6.27381 66.3867 6.66248 66.086C7.04381 65.7853 7.23448 65.36 7.23448 64.81C7.23448 64.3993 7.13548 64.0547 6.93748 63.776C6.73948 63.49 6.43881 63.2957 6.03548 63.193L6.03548 62.181C6.71748 62.3423 7.22714 62.6577 7.56448 63.127C7.90181 63.589 8.07048 64.15 8.07048 64.81C8.07048 65.3747 7.94948 65.8623 7.70748 66.273C7.46548 66.6763 7.11714 66.988 6.66248 67.208C6.20048 67.4207 5.65414 67.527 5.02348 67.527C4.36348 67.527 3.80614 67.4207 3.35148 67.208C2.89681 66.988 2.55214 66.68 2.31748 66.284C2.07548 65.8807 1.95448 65.4077 1.95448 64.865C1.95448 64.315 2.07548 63.8457 2.31748 63.457C2.55948 63.061 2.90414 62.7567 3.35148 62.544C3.79148 62.3313 4.32314 62.225 4.94648 62.225L5.18848 62.225L5.18848 67.12L4.46248 67.12L4.46248 62.654ZM7.93848 57.1582L5.99148 58.5552L5.37548 58.9402L5.37548 58.7312L5.99148 59.1272L7.93848 60.4912L7.93848 61.5912L4.90248 59.3692L2.09748 61.4152L2.09748 60.2052L3.81348 58.9952L4.45148 58.5992L4.45148 58.8082L3.81348 58.4122L2.09748 57.2242L2.09748 56.1242L4.90248 58.1702L7.93848 55.9482L7.93848 57.1582ZM1.95448 52.2804C1.95448 51.7597 2.07548 51.3161 2.31748 50.9494C2.55948 50.5754 2.90781 50.2894 3.36248 50.0914C3.81714 49.8934 4.36348 49.7944 5.00148 49.7944C5.99148 49.7944 6.75048 50.0181 7.27848 50.4654C7.80648 50.9127 8.07048 51.5177 8.07048 52.2804C8.07048 52.9551 7.81014 53.4941 7.28948 53.8974C6.76148 54.2934 5.99881 54.4914 5.00148 54.4914C4.38548 54.4914 3.85014 54.4034 3.39548 54.2274C2.94081 54.0441 2.58881 53.7874 2.33948 53.4574C2.08281 53.1201 1.95448 52.7277 1.95448 52.2804ZM2.79048 52.3464C2.79048 52.8597 2.98114 53.2521 3.36248 53.5234C3.73648 53.7874 4.28281 53.9194 5.00148 53.9194C5.71281 53.9194 6.26281 53.7837 6.65148 53.5124C7.04014 53.2337 7.23448 52.8451 7.23448 52.3464C7.23448 51.8404 7.04381 51.4554 6.66248 51.1914C6.27381 50.9201 5.72014 50.7844 5.00148 50.7844C4.29748 50.7844 3.75481 50.9201 3.37348 51.1914C2.98481 51.4627 2.79048 51.8477 2.79048 52.3464ZM10.3585 53.9194L10.3585 54.8874L2.09748 54.8874L2.09748 53.9194L10.3585 53.9194ZM7.93848 48.3298L0.0184754 48.3298L0.0184753 47.3618L7.93848 47.3618L7.93848 48.3298ZM8.07048 43.2308C8.07048 43.7882 7.94948 44.2685 7.70748 44.6718C7.46548 45.0678 7.11714 45.3722 6.66248 45.5848C6.20048 45.7975 5.65414 45.9038 5.02348 45.9038C4.36348 45.9038 3.80614 45.7975 3.35148 45.5848C2.89681 45.3648 2.55214 45.0532 2.31748 44.6498C2.07548 44.2465 1.95448 43.7735 1.95448 43.2308C1.95448 42.6735 2.07914 42.1968 2.32847 41.8008C2.57048 41.3975 2.92248 41.0895 3.38447 40.8768C3.83914 40.6642 4.38548 40.5578 5.02348 40.5578C5.67614 40.5578 6.22981 40.6678 6.68448 40.8878C7.13914 41.1005 7.48381 41.4085 7.71848 41.8118C7.95314 42.2078 8.07048 42.6808 8.07048 43.2308ZM7.23448 43.2308C7.23448 42.6882 7.04381 42.2738 6.66248 41.9878C6.28114 41.6945 5.73481 41.5478 5.02348 41.5478C4.31214 41.5478 3.76214 41.6945 3.37348 41.9878C2.98481 42.2738 2.79048 42.6882 2.79048 43.2308C2.79048 43.7735 2.98481 44.1915 3.37348 44.4848C3.75481 44.7708 4.30481 44.9138 5.02348 44.9138C5.72748 44.9138 6.27381 44.7672 6.66248 44.4738C7.04381 44.1805 7.23448 43.7662 7.23448 43.2308ZM7.93848 39.0919L2.09748 39.0919L2.09748 38.1239L7.93848 38.1239L7.93848 39.0919ZM4.67148 38.1239L4.67148 38.5639C4.04081 38.5199 3.52748 38.3989 3.13148 38.2009C2.72814 37.9956 2.43114 37.7389 2.24048 37.4309C2.04981 37.1156 1.95447 36.7709 1.95447 36.3969C1.95447 36.2796 1.96914 36.1732 1.99847 36.0779C2.02048 35.9752 2.05348 35.8982 2.09747 35.8469L2.96647 35.8469C2.93714 35.9276 2.91881 36.0192 2.91147 36.1219C2.89681 36.2246 2.88947 36.3346 2.88947 36.4519C2.88947 36.7452 2.93347 36.9982 3.02147 37.2109C3.10214 37.4162 3.22314 37.5886 3.38447 37.7279C3.54581 37.8599 3.73648 37.9589 3.95648 38.0249C4.16914 38.0909 4.40748 38.1239 4.67148 38.1239ZM4.46247 30.2998L4.97947 30.8498C4.28281 30.8498 3.74381 30.9965 3.36247 31.2898C2.98114 31.5758 2.79047 31.9828 2.79047 32.5108C2.79047 33.0535 2.98481 33.4678 3.37347 33.7538C3.75481 34.0398 4.30481 34.1828 5.02347 34.1828C5.72747 34.1828 6.27381 34.0325 6.66248 33.7318C7.04381 33.4312 7.23447 33.0058 7.23447 32.4558C7.23447 32.0452 7.13547 31.7005 6.93747 31.4218C6.73947 31.1358 6.43881 30.9415 6.03547 30.8388L6.03547 29.8268C6.71747 29.9882 7.22714 30.3035 7.56447 30.7728C7.90181 31.2348 8.07047 31.7958 8.07048 32.4558C8.07048 33.0205 7.94948 33.5082 7.70748 33.9188C7.46548 34.3222 7.11714 34.6338 6.66248 34.8538C6.20048 35.0665 5.65414 35.1728 5.02347 35.1728C4.36347 35.1728 3.80614 35.0665 3.35147 34.8538C2.89681 34.6338 2.55214 34.3258 2.31747 33.9298C2.07547 33.5265 1.95447 33.0535 1.95447 32.5108C1.95447 31.9608 2.07547 31.4915 2.31747 31.1028C2.55947 30.7068 2.90414 30.4025 3.35147 30.1898C3.79147 29.9772 4.32314 29.8708 4.94647 29.8708L5.18847 29.8708L5.18848 34.7658L4.46247 34.7658L4.46247 30.2998ZM7.93847 25.9388L2.09747 25.9388L2.09747 24.9708L7.93847 24.9708L7.93847 25.9388ZM4.48447 24.9708L4.48447 25.4328C3.92714 25.3961 3.46147 25.2861 3.08747 25.1028C2.71347 24.9194 2.43114 24.6738 2.24047 24.3658C2.04981 24.0504 1.95447 23.6948 1.95447 23.2988C1.95447 22.9101 2.03514 22.5801 2.19647 22.3088C2.35047 22.0301 2.58147 21.8174 2.88947 21.6708C3.19747 21.5241 3.57881 21.4508 4.03347 21.4508L7.93847 21.4508L7.93847 22.4188L4.23147 22.4188C3.93814 22.4188 3.68514 22.4591 3.47247 22.5398C3.25247 22.6204 3.08381 22.7451 2.96647 22.9138C2.84181 23.0824 2.77947 23.2988 2.77947 23.5628C2.77947 23.7828 2.83081 23.9808 2.93347 24.1568C3.02881 24.3254 3.15714 24.4721 3.31847 24.5968C3.47981 24.7214 3.66314 24.8168 3.86847 24.8828C4.06647 24.9414 4.27181 24.9708 4.48447 24.9708ZM4.48447 21.4508L4.48447 22.0228C3.92714 21.9861 3.46147 21.8724 3.08747 21.6818C2.71347 21.4911 2.43114 21.2381 2.24047 20.9228C2.04981 20.6074 1.95447 20.2444 1.95447 19.8338C1.95447 19.4378 2.03514 19.0968 2.19647 18.8108C2.35047 18.5248 2.58147 18.3084 2.88947 18.1618C3.19747 18.0078 3.57881 17.9308 4.03347 17.9308L7.93847 17.9308L7.93847 18.8988L4.23147 18.8988C3.93814 18.8988 3.68514 18.9391 3.47247 19.0198C3.25247 19.1004 3.08381 19.2251 2.96647 19.3938C2.84181 19.5624 2.77947 19.7788 2.77947 20.0428C2.77947 20.2628 2.83081 20.4608 2.93347 20.6368C3.02881 20.8054 3.15714 20.9521 3.31847 21.0768C3.47981 21.2014 3.66314 21.2968 3.86847 21.3628C4.06647 21.4214 4.27181 21.4508 4.48447 21.4508ZM8.07047 13.7929C8.07047 14.3503 7.94947 14.8306 7.70747 15.2339C7.46547 15.6299 7.11714 15.9343 6.66247 16.1469C6.20047 16.3596 5.65414 16.4659 5.02347 16.4659C4.36347 16.4659 3.80614 16.3596 3.35147 16.1469C2.89681 15.9269 2.55214 15.6153 2.31747 15.2119C2.07547 14.8086 1.95447 14.3356 1.95447 13.7929C1.95447 13.2356 2.07914 12.7589 2.32847 12.3629C2.57047 11.9596 2.92247 11.6516 3.38447 11.4389C3.83914 11.2263 4.38547 11.1199 5.02347 11.1199C5.67614 11.1199 6.22981 11.2299 6.68447 11.4499C7.13914 11.6626 7.48381 11.9706 7.71847 12.3739C7.95314 12.7699 8.07047 13.2429 8.07047 13.7929ZM7.23447 13.7929C7.23447 13.2503 7.04381 12.8359 6.66247 12.5499C6.28114 12.2566 5.73481 12.1099 5.02347 12.1099C4.31214 12.1099 3.76214 12.2566 3.37347 12.5499C2.98481 12.8359 2.79047 13.2503 2.79047 13.7929C2.79047 14.3356 2.98481 14.7536 3.37347 15.0469C3.75481 15.3329 4.30481 15.4759 5.02347 15.4759C5.72747 15.4759 6.27381 15.3293 6.66247 15.0359C7.04381 14.7426 7.23447 14.3283 7.23447 13.7929ZM7.93847 9.65402L2.09747 9.65402L2.09747 8.68602L7.93847 8.68602L7.93847 9.65402ZM4.67147 8.68602L4.67147 9.12602C4.04081 9.08202 3.52747 8.96102 3.13147 8.76302C2.72814 8.55769 2.43114 8.30102 2.24047 7.99302C2.04981 7.67769 1.95447 7.33302 1.95447 6.95902C1.95447 6.84169 1.96914 6.73536 1.99847 6.64002C2.02047 6.53736 2.05347 6.46036 2.09747 6.40902L2.96647 6.40902C2.93714 6.48969 2.91881 6.58136 2.91147 6.68402C2.89681 6.78669 2.88947 6.89669 2.88947 7.01402C2.88947 7.30736 2.93347 7.56036 3.02147 7.77302C3.10214 7.97836 3.22314 8.15069 3.38447 8.29002C3.54581 8.42202 3.73647 8.52102 3.95647 8.58702C4.16914 8.65302 4.40747 8.68602 4.67147 8.68602ZM4.46247 0.861931L4.97947 1.41193C4.28281 1.41193 3.74381 1.5586 3.36247 1.85193C2.98114 2.13793 2.79047 2.54493 2.79047 3.07293C2.79047 3.6156 2.98481 4.02993 3.37347 4.31593C3.75481 4.60193 4.30481 4.74493 5.02347 4.74493C5.72747 4.74493 6.27381 4.5946 6.66247 4.29393C7.04381 3.99326 7.23447 3.56793 7.23447 3.01793C7.23447 2.60726 7.13547 2.2626 6.93747 1.98393C6.73947 1.69793 6.43881 1.5036 6.03547 1.40093L6.03547 0.388931C6.71747 0.550264 7.22714 0.865597 7.56447 1.33493C7.90181 1.79693 8.07047 2.35793 8.07047 3.01793C8.07047 3.5826 7.94947 4.07026 7.70747 4.48093C7.46547 4.88426 7.11714 5.19593 6.66247 5.41593C6.20047 5.6286 5.65414 5.73493 5.02347 5.73493C4.36347 5.73493 3.80614 5.6286 3.35147 5.41593C2.89681 5.19593 2.55214 4.88793 2.31747 4.49193C2.07547 4.0886 1.95447 3.6156 1.95447 3.07293C1.95447 2.52293 2.07547 2.0536 2.31747 1.66493C2.55947 1.26893 2.90414 0.964598 3.35147 0.751931C3.79147 0.539264 4.32314 0.432931 4.94647 0.432931L5.18847 0.432931L5.18847 5.32793L4.46247 5.32793L4.46247 0.861931Z" fill="#272727"/>
</svg>
